<?xml version="1.0" encoding="utf-8"?>
<!-- Generator: Adobe Illustrator 16.0.3, SVG Export Plug-In . SVG Version: 6.00 Build 0)  -->
<!DOCTYPE svg PUBLIC "-//W3C//DTD SVG 1.1//EN" "http://www.w3.org/Graphics/SVG/1.1/DTD/svg11.dtd">
<svg version="1.1" id="Capa_1" xmlns="http://www.w3.org/2000/svg" xmlns:xlink="http://www.w3.org/1999/xlink" x="0px" y="0px"
	 width="402.52px" height="583.938px" viewBox="96.381 185.427 402.52 583.938"
	 enable-background="new 96.381 185.427 402.52 583.938" xml:space="preserve">
<g>
	<defs>
		<filter id="Adobe_OpacityMaskFilter" filterUnits="userSpaceOnUse" x="99.744" y="190.56" width="395.792" height="573.672">
			<feColorMatrix  type="matrix" values="1 0 0 0 0  0 1 0 0 0  0 0 1 0 0  0 0 0 1 0"/>
		</filter>
	</defs>
	<mask maskUnits="userSpaceOnUse" x="99.744" y="190.56" width="395.792" height="573.672" id="mask">
		<path fill="#FFFFFF" filter="url(#Adobe_OpacityMaskFilter)" d="M595.28,126.281H0v427.595h106.674
			c22.847,84.756,99.68,147.094,190.966,147.094s168.119-62.338,190.966-147.094H595.28V126.281z"/>
	</mask>
	<g mask="url(#mask)">
		<circle fill="#85C5E5" cx="297.64" cy="501.404" r="197.897"/>
		<g transform="scale(1)">
			<path fill="#592D3D" stroke="#592D3D" stroke-width="2" stroke-miterlimit="10" d="M134.147,422.73
				c109.186,46.402,220.932,47.064,330.939,0c10.436-4.464,10.376-83.261,0-79.653c-107.43,37.401-221.045,37.8-330.939,0
				C121.074,338.558,122.348,417.689,134.147,422.73z"/>
		</g>
		<path fill="#FDD2B2" d="M363.12,577.933c54.028,0,42.86,68.004,43.379,143.629H363.12V577.933z"/>
		<path fill="#F3AB98" d="M376.657,621.478l-13.537,22.697l6.774,77.387h18.906C389.259,614.25,376.657,621.478,376.657,621.478z"/>
		<path fill="#FDD2B2" d="M138.849,423.921c0-87.697,71.095-158.791,158.791-158.791s158.791,71.094,158.791,158.791
			c0.046,47.857-21.537,93.172-58.725,123.295c-3.258,2.65-6.619,5.168-10.084,7.555c-35.812,22.732-81.054,22.732-121.896,19.096
			c-3.964-0.596-7.917-1.346-11.84-2.209c-15.674-3.453-30.848-8.779-44.866-16.549c-3.465-2.135-6.824-4.439-10.078-6.916
			c-3.271-2.49-6.41-5.15-9.405-7.965c-2.834-2.631-5.57-5.365-8.209-8.203C153.98,502.675,138.796,464.037,138.849,423.921z"/>
		<path fill="#F3AB98" d="M160.493,503.974c0.417,0.715,0.827,1.43,1.256,2.131c0.256,0.43,0.524,0.846,0.792,1.275
			c0.393,0.637,0.786,1.273,1.19,1.898c0.286,0.453,0.596,0.893,0.869,1.334c0.393,0.594,0.786,1.189,1.19,1.785
			c0.304,0.453,0.596,0.904,0.929,1.357c0.393,0.596,0.786,1.143,1.19,1.715c0.321,0.457,0.655,0.91,0.982,1.369
			c0.327,0.457,0.798,1.102,1.19,1.648c0.394,0.547,0.685,0.91,1.03,1.363c0.345,0.453,0.815,1.072,1.232,1.607
			c0.416,0.535,0.708,0.898,1.065,1.346c0.356,0.445,0.839,1.047,1.262,1.564s0.732,0.887,1.102,1.328
			c0.369,0.439,0.856,1.023,1.291,1.529s0.757,0.875,1.138,1.311l1.321,1.488c0.387,0.434,0.779,0.857,1.19,1.285
			c0.512,0.559,1.03,1.113,1.548,1.66l0.721,0.762c0.768,0.799,1.541,1.596,2.327,2.383l0.154,0.16
			c0.769,0.762,1.548,1.518,2.328,2.268l0.94,0.893c0.565,0.531,1.131,1.061,1.702,1.584l0.69,0.631
			c0.596,0.561,1.244,1.107,1.869,1.654c1.945,1.695,3.93,3.32,5.953,4.877c3.25,2.475,6.609,4.781,10.078,6.916
			c14.019,7.738,29.169,13.096,44.866,16.549c3.923,0.863,7.876,1.607,11.84,2.209c25.062,2.232,51.79,3.084,76.958-1.834
			c-40.021-11.781-232.213-80.988-111.246-292.467l0,0c-1.619,0.744-3.214,1.512-4.798,2.31l-0.351,0.173
			c-0.727,0.363-1.453,0.738-2.173,1.119l-0.596,0.316c-2.238,1.19-4.452,2.423-6.625,3.708l-0.536,0.315
			c-0.69,0.411-1.375,0.828-2.06,1.25l-0.518,0.322c-2.128,1.329-4.221,2.705-6.28,4.125l-0.644,0.447
			c-0.648,0.452-1.285,0.905-1.923,1.363l-0.393,0.28c-1.298,0.949-2.579,1.909-3.846,2.881l-0.369,0.286
			c-0.595,0.464-1.19,0.94-1.785,1.423l-0.696,0.56c-0.596,0.482-1.191,0.964-1.786,1.458l0,0c-1.256,1.042-2.494,2.113-3.715,3.197
			l-0.679,0.595l-1.601,1.458l-0.774,0.702c-1.698,1.587-3.359,3.208-4.982,4.863l-0.821,0.839c-0.471,0.488-0.94,0.977-1.405,1.471
			c-0.273,0.292-0.548,0.595-0.815,0.881c-0.817,0.873-1.623,1.758-2.417,2.655c-0.268,0.304-0.541,0.595-0.81,0.917
			c-0.423,0.482-0.839,0.97-1.256,1.458l-0.898,1.065c-0.405,0.482-0.81,0.964-1.191,1.453c-0.321,0.393-0.643,0.792-0.958,1.19
			c-0.637,0.792-1.262,1.583-1.881,2.381c-0.321,0.417-0.643,0.833-0.959,1.256c-0.315,0.422-0.714,0.946-1.065,1.429
			c-0.351,0.482-0.637,0.863-0.946,1.297s-0.673,0.923-1,1.387c-0.563,0.793-1.119,1.597-1.667,2.411
			c-0.297,0.435-0.595,0.881-0.887,1.322s-0.654,0.988-0.977,1.488l-0.887,1.375l-1,1.613c-0.256,0.411-0.512,0.821-0.762,1.232
			c-0.53,0.869-1.042,1.744-1.554,2.62l-0.727,1.286c-0.321,0.565-0.643,1.137-0.958,1.708c-0.238,0.435-0.477,0.869-0.709,1.304
			c-0.381,0.708-0.756,1.422-1.131,2.137l-0.714,1.393c-0.381,0.762-0.763,1.518-1.138,2.286c-0.196,0.411-0.398,0.827-0.595,1.244
			c-0.31,0.648-0.596,1.304-0.911,1.958c-0.185,0.393-0.363,0.786-0.541,1.19c-0.441,0.98-0.871,1.972-1.292,2.976
			c-0.131,0.31-0.256,0.625-0.387,0.935c-0.316,0.756-0.626,1.512-0.929,2.274c-0.161,0.398-0.315,0.797-0.471,1.19
			c-0.298,0.75-0.596,1.506-0.863,2.262c-0.125,0.327-0.25,0.655-0.369,0.982c-0.373,1.044-0.74,2.087-1.101,3.131l-0.334,1.012
			c-0.262,0.794-0.518,1.587-0.768,2.381l-0.357,1.137c-0.279,0.917-0.554,1.833-0.815,2.756c-0.06,0.196-0.119,0.393-0.173,0.595
			c-0.31,1.095-0.607,2.195-0.893,3.298c-0.096,0.352-0.179,0.708-0.268,1.06c-0.209,0.828-0.411,1.655-0.596,2.488l-0.25,1.042
			c-0.256,1.131-0.506,2.262-0.738,3.399l-0.089,0.458c-0.203,1.012-0.401,2.024-0.596,3.036c-0.065,0.363-0.125,0.72-0.19,1.083
			c-0.154,0.887-0.304,1.786-0.44,2.679c-0.048,0.304-0.102,0.595-0.143,0.905c-0.179,1.161-0.34,2.328-0.494,3.5l-0.09,0.774
			c-0.119,0.946-0.226,1.899-0.327,2.851c-0.036,0.357-0.077,0.714-0.113,1.078c-0.095,1-0.185,2.006-0.268,3.012
			c0,0.208-0.036,0.411-0.048,0.595c-0.087,1.19-0.164,2.391-0.232,3.602c0,0.315,0,0.637-0.041,0.952
			c-0.04,0.937-0.075,1.871-0.107,2.804c0,0.352,0,0.703,0,1.054c0,1.22-0.048,2.446-0.048,3.673c0,0,0,0.041,0,0.061
			c0,1.32,0,2.631,0.048,3.939c0,0.453,0.036,0.904,0.048,1.357c0.029,0.875,0.06,1.75,0.101,2.625c0,0.529,0.065,1.055,0.096,1.584
			c0.048,0.791,0.089,1.584,0.148,2.381c0.042,0.596,0.096,1.125,0.144,1.686c0.065,0.75,0.125,1.5,0.202,2.244
			c0.054,0.594,0.125,1.154,0.185,1.732c0.083,0.719,0.16,1.445,0.25,2.166c0.071,0.596,0.154,1.191,0.232,1.756
			c0.095,0.703,0.19,1.41,0.297,2.113c0.09,0.596,0.185,1.191,0.28,1.785c0.107,0.691,0.22,1.389,0.339,2.078
			c0.107,0.596,0.215,1.191,0.328,1.785c0.125,0.686,0.256,1.369,0.387,2.049c0.131,0.678,0.244,1.191,0.369,1.785
			c0.143,0.68,0.285,1.352,0.44,2.025c0.154,0.672,0.262,1.189,0.404,1.744c0.155,0.672,0.322,1.338,0.488,2
			c0.167,0.66,0.292,1.16,0.44,1.732c0.179,0.666,0.357,1.326,0.542,1.988c0.154,0.594,0.315,1.143,0.482,1.707
			c0.19,0.662,0.387,1.316,0.595,1.971c0.209,0.654,0.346,1.125,0.524,1.691c0.179,0.564,0.416,1.303,0.631,1.951
			c0.214,0.65,0.369,1.113,0.56,1.668c0.227,0.648,0.452,1.297,0.685,1.945c0.196,0.543,0.387,1.09,0.595,1.633l0.738,1.945
			c0.209,0.529,0.411,1.066,0.596,1.596c0.262,0.648,0.529,1.303,0.798,1.953c0.214,0.512,0.422,1.029,0.643,1.541
			c0.28,0.666,0.596,1.322,0.863,1.982c0.22,0.488,0.435,0.982,0.654,1.471c0.31,0.689,0.638,1.369,0.953,2.047l0.643,1.369
			c0.363,0.75,0.738,1.488,1.113,2.232c0.19,0.375,0.369,0.756,0.565,1.131c1.143,2.227,2.334,4.424,3.571,6.59
			C160.059,503.248,160.28,503.611,160.493,503.974z"/>
		<path fill="none" stroke="#592D3D" stroke-width="2" stroke-miterlimit="10" d="M138.849,423.921
			c0-87.697,71.095-158.791,158.791-158.791s158.791,71.094,158.791,158.791c0.046,47.857-21.537,93.172-58.725,123.295
			c-3.258,2.65-6.619,5.168-10.084,7.555c-35.812,22.732-81.054,22.732-121.896,19.096c-3.964-0.596-7.917-1.346-11.84-2.209
			c-15.674-3.453-30.848-8.779-44.866-16.549c-3.465-2.135-6.824-4.439-10.078-6.916c-3.271-2.49-6.41-5.15-9.405-7.965
			c-2.834-2.631-5.57-5.365-8.209-8.203C153.98,502.675,138.796,464.037,138.849,423.921z"/>
		<path fill="#FDD2B2" d="M229.85,577.933c-54.034,0-42.86,68.004-43.378,143.629h43.378V577.933z"/>
		<path fill="#F3AB98" d="M218.605,621.478l13.555,22.697l-6.78,77.387H206.49C206.009,614.25,218.605,621.478,218.605,621.478z"/>
		<path fill="#FDD2B2" d="M368.758,763.232H226.522c-4.363-0.004-7.899-3.543-7.899-7.906V585.837c0-4.363,3.536-7.902,7.899-7.904
			h138.837c7.793,0,11.311,4.559,11.311,11.834v165.535c0.014,4.365-3.516,7.916-7.881,7.93
			C368.778,763.232,368.768,763.232,368.758,763.232z"/>
		<path fill="#F3AB98" d="M374.461,582.634c-0.594-0.729-1.096-1.529-1.494-2.381c-1.43-1.119-3.131-1.84-4.93-2.09
			c-0.886-0.137-1.781-0.203-2.679-0.201H226.522c-4.352,0.004-7.883,3.523-7.899,7.875c17.264,6.203,49.581,9.668,79.018,9.668
			C335.178,595.505,359.776,589.939,374.461,582.634z"/>
		<path fill="none" stroke="#592D3D" stroke-width="2" stroke-linecap="square" stroke-miterlimit="10" d="M363.12,577.933
			c54.028,0,42.86,68.004,43.379,143.629h-29.842"/>
		<path fill="none" stroke="#592D3D" stroke-width="2" stroke-linecap="square" stroke-miterlimit="10" d="M229.85,577.933
			c-54.034,0-42.86,68.004-43.378,143.629h29.806"/>
		<path fill="none" stroke="#592D3D" stroke-width="2" stroke-miterlimit="10" d="M226.522,577.992l138.837-0.059"/>
		<path fill="#F3AB98" d="M226.522,763.232h69.422c-64.975,0-60.069-137.617-77.321-137.617v129.688
			c-0.013,4.365,3.516,7.916,7.882,7.93C226.51,763.232,226.516,763.232,226.522,763.232z"/>
		<path fill="#592D3D" d="M215.051,638.728c-0.113-2.184-0.065-4.369,0.029-6.547c0.096-2.18,0.28-4.377,0.513-6.549
			c0.119-1.096,0.237-2.186,0.387-3.279c0.148-1.096,0.292-2.186,0.506-3.281c0.422-2.266,1.141-4.469,2.137-6.547
			c0.997,2.078,1.715,4.281,2.138,6.547c0.214,1.096,0.369,2.186,0.506,3.281c0.137,1.094,0.268,2.184,0.387,3.279
			c0.227,2.184,0.405,4.369,0.506,6.549c0.102,2.178,0.149,4.369,0.036,6.547H215.051z"/>
		<path fill="none" stroke="#592D3D" stroke-width="2" stroke-miterlimit="10" d="M376.657,644.175v4.762
			c0.154,20.24,0.154,41.074,0,61.166c0,1.707,0,3.404,0,5.078v40.127c0.01,4.365-3.521,7.914-7.888,7.924c-0.004,0-0.008,0-0.012,0
			H226.522c-4.363-0.004-7.899-3.543-7.899-7.906v-34.645c0-1.494,0-3.02,0-4.555c-0.148-20.758-0.148-41.592,0-62.684v-14.715"/>
		<path fill="#592D3D" d="M373.086,644.175c-0.113-2.482-0.06-4.971,0.035-7.459c0.096-2.488,0.28-4.971,0.506-7.459
			c0.119-1.244,0.244-2.488,0.387-3.732c0.144-1.244,0.292-2.482,0.507-3.727c0.414-2.563,1.132-5.066,2.137-7.459
			c1.005,2.393,1.723,4.896,2.137,7.459c0.215,1.244,0.369,2.488,0.506,3.727c0.138,1.238,0.269,2.488,0.388,3.732
			c0.226,2.488,0.41,4.971,0.506,7.459c0.095,2.488,0.148,4.977,0.035,7.459H373.086z"/>
		<path fill="#592D3D" d="M339.714,627.775c0.131-5.625,7.274-8.006,10.847-4.434c2.44,2.49,2.399,6.49-0.093,8.932
			s-6.491,2.398-8.933-0.092C340.365,631.013,339.709,629.427,339.714,627.775z"/>
		<path fill="#592D3D" d="M242.94,627.597c-0.125-4.852,5.232-7.232,8.805-5.447c4.762,1.785,4.762,8.334,0,11.311
			c-2.382,1.189-4.763,0-6.995-1.477C243.587,630.82,242.936,629.242,242.94,627.597z"/>
		<path fill="#F3AB98" d="M297.64,621.417c0.426,1.123,0.726,2.289,0.893,3.477c0.178,1.15,0.275,2.313,0.292,3.477l0.179,6.959
			c0.054,2.314,0.125,4.637,0.148,6.959l0.102,6.947c0.137,9.268,0.131,18.549,0.167,27.822c0.035,9.275,0.106,18.549,0,27.824
			c-0.054,4.637-0.179,9.273-0.315,13.912c-0.06,2.314-0.173,4.637-0.399,6.951c-0.202,2.34-0.555,4.664-1.054,6.959
			c-0.499-2.295-0.851-4.619-1.053-6.959c-0.227-2.314-0.34-4.637-0.399-6.951c-0.137-4.639-0.262-9.275-0.315-13.912
			c-0.119-9.275,0-18.549,0-27.824c0-9.273,0-18.543,0.107-27.816l0.101-6.965l0.197-6.953l0.196-6.953
			c0.021-1.164,0.121-2.326,0.297-3.477C296.939,623.707,297.227,622.541,297.64,621.417z"/>
		<path fill="#F3AB98" d="M253.125,651.914c0.883-0.42,1.817-0.719,2.78-0.893c0.919-0.172,1.851-0.271,2.785-0.297l5.566-0.197
			l11.132-0.244c7.417-0.113,14.828-0.143,22.251-0.16s14.841-0.096,22.258,0c3.708,0.053,7.417,0.178,11.132,0.314
			c1.851,0.066,3.708,0.18,5.56,0.398c1.88,0.209,3.741,0.564,5.565,1.061c-1.823,0.5-3.685,0.852-5.565,1.053
			c-1.852,0.227-3.709,0.34-5.56,0.4c-3.715,0.137-7.424,0.256-11.132,0.309c-7.417,0.113-14.835,0-22.258,0s-14.84,0-22.264-0.09
			c-3.708-0.035-7.417-0.154-11.119-0.297l-5.566-0.203c-0.933-0.023-1.862-0.123-2.779-0.297
			C254.948,652.611,254.012,652.322,253.125,651.914z"/>
		<path fill="#F3AB98" d="M263.358,670.593c0.703-0.334,1.454-0.559,2.227-0.66c0.714-0.102,1.436-0.131,2.155-0.09
			c1.423,0.061,2.845,0.096,4.268,0.125c2.846,0.066,5.691,0.09,8.536,0.102c5.733,0,11.364,0.047,17.121-0.125
			c5.756-0.172,11.465-0.256,17.191-0.232c2.863,0,5.727,0.078,8.584,0.143c1.438,0.02,2.875,0.113,4.304,0.281
			c1.469,0.162,2.918,0.467,4.327,0.91c-1.376,0.541-2.805,0.939-4.262,1.189c-1.419,0.256-2.853,0.428-4.292,0.514
			c-2.869,0.207-5.738,0.387-8.602,0.486c-5.739,0.215-11.472,0.191-17.191,0.27c-2.863,0-5.721,0.131-8.62,0.059
			c-2.899-0.07-5.769-0.078-8.644-0.184c-2.875-0.107-5.762-0.346-8.632-0.645c-1.44-0.16-2.869-0.338-4.304-0.535
			c-0.725-0.088-1.437-0.256-2.125-0.5C264.661,671.451,263.971,671.076,263.358,670.593z"/>
		<path fill="#F3AB98" d="M261.286,691.72c0.706-0.416,1.474-0.717,2.274-0.893c0.746-0.174,1.508-0.271,2.273-0.293l4.542-0.189
			c3.03-0.107,6.066-0.197,9.096-0.244c6.061-0.09,12.12-0.09,18.168-0.09s12.12-0.102,18.18,0c3.03,0.055,6.061,0.18,9.09,0.316
			c1.521,0.051,3.036,0.182,4.542,0.393c1.551,0.213,3.078,0.574,4.561,1.078c-1.478,0.494-2.998,0.846-4.542,1.053
			c-1.508,0.215-3.026,0.35-4.549,0.398c-3.029,0.137-6.06,0.262-9.09,0.316c-6.06,0.119-12.126,0.035-18.186,0
			s-12.119-0.035-18.18-0.148c-3.03-0.061-6.065-0.168-9.096-0.293l-4.542-0.219c-0.766-0.023-1.528-0.123-2.274-0.299
			C262.756,692.435,261.99,692.134,261.286,691.72z"/>
		<path fill="#F3AB98" d="M403.481,665.814c0.125-22.092-0.721-41.711-4.602-56.783c-5.994-15.098-16.775-24.098-35.759-24.098
			l13.566,80.076C376.687,665.009,390.093,671.105,403.481,665.814z"/>
		<path fill="none" stroke="#592D3D" stroke-width="2" stroke-linecap="square" stroke-miterlimit="10" d="M408.606,659.527
			c-0.679,0.563-1.418,1.047-2.202,1.447"/>
		<path fill="#F3AB98" d="M194.127,608.386c-4.066,15.223-4.763,35.199-4.607,57.742c11.846,5.084,30.014-1.279,30.014-1.279
			l10.316-78.721C211.473,586.111,200.52,594.386,194.127,608.386z"/>
		<path fill="#633749" d="M365.359,577.933h-32.27v0.059c0.001,2.68-0.287,5.352-0.857,7.971c-0.277,1.273-0.623,2.531-1.036,3.768
			c-1.316,3.693-3.339,7.098-5.952,10.02c-0.835,0.936-1.729,1.818-2.679,2.637c-14.983,10.834-38.795,11.43-53.266-0.346
			c-1.56-1.361-2.978-2.877-4.232-4.523c-2.606-3.422-4.453-7.361-5.417-11.555c-0.282-1.295-0.495-2.605-0.638-3.922
			c-0.148-1.346-0.222-2.695-0.22-4.049v-0.059h-32.271c-4.363,0.002-7.899,3.541-7.899,7.904v169.465
			c-0.013,4.365,3.516,7.916,7.882,7.93c0.006,0,0.012,0,0.018,0h142.236c4.363-0.004,7.899-3.543,7.899-7.906V589.767
			C376.657,582.492,373.152,577.933,365.359,577.933z"/>
		<path fill="#633749" d="M363.12,577.933c37.824,0,43.694,33.334,43.991,79.273c-11.072,6.916-29.115,0.779-29.115,0.779
			L363.12,577.933z"/>
		<path fill="#5E3244" d="M376.657,621.478l-13.537,22.697l6.774,77.387h6.911v-62.893l10.287,1.721
			C383.717,617.429,376.657,621.478,376.657,621.478z"/>
		<path fill="#633749" d="M229.85,577.933c-36.776,0-45.141,32.025-45.747,75.992c11.31,11.822,34.525,2.727,34.525,2.727
			L229.85,577.933z"/>
		<path fill="#5E3244" d="M218.605,621.478v35.197l-10.305,2.566C211.676,617.501,218.605,621.478,218.605,621.478z"/>
		<path fill="none" stroke="#592D3D" stroke-width="2" stroke-linecap="square" stroke-miterlimit="10" d="M363.12,577.933
			c40.128,0,46.7,33.508,46.968,79.637c-15.596,7.398-32.092,0.416-32.092,0.416"/>
		<path fill="none" stroke="#592D3D" stroke-width="2" stroke-linecap="square" stroke-miterlimit="10" d="M229.85,577.933
			c-39.759,0-47.67,32.561-48.075,77.814c12.287,8.799,36.824,0.928,36.824,0.928"/>
		<path fill="#5E3244" d="M226.522,763.232h69.422c-64.975,0-60.069-137.617-77.321-137.617v129.688
			c-0.013,4.365,3.516,7.916,7.882,7.93C226.51,763.232,226.516,763.232,226.522,763.232z"/>
		<path fill="#592D3D" d="M215.051,638.728c-0.113-2.184-0.065-4.369,0.029-6.547c0.096-2.18,0.28-4.377,0.513-6.549
			c0.119-1.096,0.237-2.186,0.387-3.279c0.148-1.096,0.292-2.186,0.506-3.281c0.422-2.266,1.141-4.469,2.137-6.547
			c0.997,2.078,1.714,4.279,2.132,6.547c0.22,1.096,0.375,2.186,0.512,3.281c0.137,1.094,0.268,2.184,0.387,3.279
			c0.227,2.184,0.404,4.369,0.506,6.549c0.102,2.178,0.149,4.369,0.036,6.547H215.051z"/>
		<path fill="none" stroke="#592D3D" stroke-width="2" stroke-miterlimit="10" d="M376.657,644.175v4.762
			c0.154,20.24,0.154,41.074,0,61.166c0,1.707,0,3.404,0,5.078v40.127c0.01,4.365-3.521,7.914-7.888,7.924c-0.004,0-0.008,0-0.012,0
			H226.522c-4.363-0.004-7.899-3.543-7.899-7.906v-34.645c0-1.494,0-3.02,0-4.555c-0.148-20.758-0.148-41.592,0-62.684v-14.715"/>
		<path fill="#592D3D" d="M373.086,644.175c-0.113-2.482-0.06-4.971,0.035-7.459c0.096-2.488,0.28-4.971,0.506-7.459
			c0.119-1.244,0.244-2.488,0.387-3.732c0.144-1.244,0.292-2.482,0.513-3.727c0.409-2.563,1.125-5.066,2.131-7.459
			c1.005,2.393,1.723,4.896,2.137,7.459c0.215,1.244,0.369,2.488,0.506,3.727c0.138,1.238,0.269,2.488,0.388,3.732
			c0.226,2.488,0.41,4.971,0.506,7.459c0.095,2.488,0.148,4.977,0.035,7.459H373.086z"/>
		<path fill="none" stroke="#592D3D" stroke-width="2" stroke-miterlimit="10" d="M226.522,577.992l138.837-0.059"/>
		<path fill="none" stroke="#592D3D" stroke-width="2" stroke-miterlimit="10" d="M333.089,577.992
			c0.001,2.68-0.287,5.352-0.857,7.971c-0.277,1.273-0.623,2.531-1.036,3.768c-1.316,3.693-3.339,7.098-5.952,10.02
			c-0.835,0.938-1.729,1.818-2.679,2.637c-14.983,10.834-38.795,11.43-53.266-0.346c-1.56-1.361-2.978-2.877-4.232-4.523
			c-2.606-3.422-4.453-7.361-5.417-11.555c-0.282-1.295-0.495-2.605-0.638-3.922c-0.148-1.346-0.222-2.695-0.22-4.049"/>
		<path fill="#592D3D" d="M299.664,619.406c-3.602,0.725-7.285,0.945-10.947,0.654c-3.695-0.26-7.339-1.012-10.834-2.238
			c-3.517-1.205-6.829-2.939-9.822-5.143l-1.107-0.84c-0.363-0.285-0.714-0.596-1.065-0.904c-0.707-0.602-1.37-1.256-1.982-1.953
			c-1.222-1.373-2.296-2.871-3.202-4.471c1.273,1.277,2.612,2.488,4.012,3.625c0.346,0.287,0.696,0.566,1.042,0.834
			c0.345,0.268,0.732,0.488,1.095,0.738c0.363,0.25,0.727,0.5,1.102,0.732l1.137,0.689c3.037,1.801,6.248,3.287,9.584,4.441
			c3.343,1.17,6.778,2.055,10.269,2.648C292.493,618.802,296.073,619.197,299.664,619.406z"/>
		<path fill="none" stroke="#592D3D" stroke-width="2" stroke-linecap="square" stroke-miterlimit="10" d="M183.245,657.57
			c0.677,0.617,1.41,1.168,2.19,1.648"/>
		<path fill="#592D3D" d="M401.635,651.73c-1.238,0.74-2.603,1.248-4.023,1.5c-1.412,0.277-2.848,0.406-4.286,0.387
			c-1.437-0.029-2.866-0.186-4.274-0.471c-0.702-0.125-1.387-0.334-2.077-0.518c-0.69-0.186-1.352-0.459-2.007-0.738
			c0.721,0,1.417,0.107,2.12,0.166l2.095,0.174c0.696,0,1.388,0.119,2.084,0.125s1.381,0.064,2.071,0.07
			c1.389,0.023,2.778-0.014,4.167-0.113C398.893,652.216,400.274,652.021,401.635,651.73z"/>
		<path stroke="#FFFFFF" stroke-width="2" d="M337.452,672.648c0-5.275-6.607-10.275-16.733-13.377
			c2.34-10.322,1.298-18.531-3.28-21.162c-1.067-0.707-2.343-1.035-3.619-0.928c-4.763,0.076-10.305,3.184-16.209,8.703
			c-5.923-5.488-12.472-8.734-16.216-8.639c-1.881,0.055-2.602,0.311-3.667,0.93c-4.565,2.625-5.584,10.822-3.232,21.113
			c-10.119,3.113-16.668,8.102-16.668,13.359c0,5.256,6.608,10.273,16.733,13.375c-2.339,10.322-1.298,18.531,3.28,21.162
			c1.112,0.627,2.373,0.941,3.649,0.912c4.464,0,10.304-3.186,16.215-8.703c5.905,5.488,11.751,8.637,16.216,8.637
			c1.281,0.027,2.547-0.287,3.667-0.91c4.56-2.631,5.583-10.828,3.226-21.115C330.88,682.904,337.452,677.904,337.452,672.648z
			 M313.808,640.806L313.808,640.806c0.641-0.02,1.276,0.127,1.845,0.422c2.209,1.268,3.167,6.09,2.423,12.287
			c-0.178,1.523-0.47,3.131-0.827,4.762c-3.394-0.822-6.838-1.418-10.311-1.785c-2.066-2.852-4.321-5.563-6.75-8.113
			C305.474,643.503,310.433,640.812,313.808,640.806L313.808,640.806z M283.258,680.958c0.762,1.297,1.542,2.563,2.34,3.797
			c-2.304-0.34-4.53-0.762-6.655-1.279c0.595-2.096,1.345-4.256,2.19-6.412C281.8,678.363,282.496,679.66,283.258,680.958
			L283.258,680.958z M278.895,661.82c2.125-0.5,4.363-0.941,6.685-1.281c-0.791,1.25-1.589,2.531-2.333,3.846
			c-0.744,1.316-1.446,2.596-2.113,3.895C280.28,666.164,279.532,664.007,278.895,661.82L278.895,661.82z M283.032,672.695
			c1.006-2.172,2.143-4.352,3.363-6.477c1.22-2.125,2.56-4.268,3.91-6.197c2.417-0.213,4.87-0.326,7.334-0.326
			c2.465,0,4.899,0.113,7.304,0.309c1.346,1.93,2.661,3.994,3.93,6.168c1.268,2.172,2.381,4.285,3.375,6.459
			c-1.024,2.178-2.144,4.352-3.363,6.477c-1.221,2.125-2.56,4.268-3.911,6.201c-2.417,0.209-4.869,0.322-7.334,0.322
			c-2.464,0-4.899-0.113-7.304-0.309c-1.346-1.93-2.661-3.988-3.929-6.168C285.139,676.976,284.056,674.869,283.032,672.695
			L283.032,672.695z M312.022,680.91c0.744-1.297,1.44-2.613,2.107-3.91c0.854,2.115,1.601,4.273,2.238,6.465
			c-2.125,0.518-4.363,0.957-6.685,1.297C310.48,683.505,311.272,682.226,312.022,680.91L312.022,680.91z M312.022,664.337
			c-0.744-1.297-1.542-2.566-2.339-3.799c2.31,0.338,4.527,0.766,6.655,1.281c-0.596,2.096-1.346,4.256-2.191,6.41
			c-0.685-1.297-1.381-2.596-2.143-3.893H312.022z M302.105,656.169c-1.465-0.059-2.977-0.113-4.465-0.113s-3.036,0.037-4.512,0.113
			c1.393-1.809,2.883-3.543,4.464-5.189C299.183,652.632,300.689,654.365,302.105,656.169z M279.526,641.289
			c0.574-0.307,1.22-0.453,1.869-0.424l0,0c3.357,0,8.334,2.68,13.632,7.566c-2.416,2.543-4.655,5.248-6.702,8.096
			c-3.478,0.359-6.927,0.957-10.322,1.787c-0.375-1.619-0.649-3.197-0.846-4.703c-0.762-6.203,0.179-11.025,2.369-12.305V641.289z
			 M275.436,682.5c-1.606-0.506-3.131-1.061-4.542-1.654c-5.75-2.453-9.465-5.668-9.465-8.215c0-2.549,3.715-5.781,9.465-8.215
			c1.394-0.596,2.917-1.139,4.495-1.639c0.991,3.373,2.211,6.674,3.648,9.883c-1.421,3.201-2.624,6.494-3.602,9.857V682.5z
			 M281.46,704.47c-0.638,0.012-1.268-0.139-1.833-0.434c-2.209-1.268-3.167-6.09-2.423-12.287c0.179-1.529,0.47-3.131,0.827-4.762
			c3.394,0.824,6.838,1.422,10.311,1.785c2.065,2.855,4.32,5.568,6.75,8.121c-5.292,4.904-10.257,7.596-13.632,7.596V704.47z
			 M297.67,694.298c-1.591-1.656-3.097-3.391-4.513-5.197c1.465,0.064,2.977,0.113,4.465,0.113s3.036-0.029,4.512-0.113
			c-1.393,1.818-2.883,3.559-4.464,5.215V694.298z M315.754,703.97c-0.573,0.307-1.22,0.453-1.869,0.424
			c-3.357,0-8.334-2.68-13.632-7.566c2.416-2.543,4.655-5.248,6.703-8.096c3.478-0.359,6.926-0.957,10.322-1.785
			c0.365,1.557,0.647,3.133,0.845,4.721c0.762,6.221-0.179,11.035-2.369,12.322V703.97z M324.374,680.845
			c-1.399,0.594-2.923,1.131-4.501,1.637c-0.992-3.375-2.212-6.678-3.648-9.889c1.412-3.193,2.605-6.479,3.571-9.834
			c1.607,0.506,3.131,1.055,4.56,1.656c5.751,2.451,9.465,5.666,9.465,8.215c0,2.547-3.702,5.797-9.446,8.232V680.845z"/>
		<circle stroke="#FFFFFF" stroke-width="2" cx="297.622" cy="672.647" r="7.417"/>
		<path fill="#61DAFB" d="M337.452,672.648c0-5.275-6.607-10.275-16.733-13.377c2.34-10.322,1.298-18.531-3.28-21.162
			c-1.067-0.707-2.343-1.035-3.619-0.928c-4.763,0.076-10.305,3.184-16.209,8.703c-5.923-5.488-12.472-8.734-16.216-8.639
			c-1.881,0.055-2.602,0.311-3.667,0.93c-4.565,2.625-5.584,10.822-3.232,21.113c-10.119,3.113-16.668,8.102-16.668,13.359
			c0,5.256,6.608,10.273,16.733,13.375c-2.339,10.322-1.298,18.531,3.28,21.162c1.112,0.627,2.373,0.941,3.649,0.912
			c4.464,0,10.304-3.186,16.215-8.703c5.905,5.488,11.751,8.637,16.216,8.637c1.281,0.027,2.547-0.287,3.667-0.91
			c4.56-2.631,5.583-10.828,3.226-21.115C330.88,682.904,337.452,677.904,337.452,672.648z M313.808,640.806L313.808,640.806
			c0.641-0.02,1.276,0.127,1.845,0.422c2.209,1.268,3.167,6.09,2.423,12.287c-0.178,1.523-0.47,3.131-0.827,4.762
			c-3.394-0.822-6.838-1.418-10.311-1.785c-2.066-2.852-4.321-5.563-6.75-8.113C305.474,643.503,310.433,640.812,313.808,640.806
			L313.808,640.806z M283.258,680.958c0.762,1.297,1.542,2.563,2.34,3.797c-2.304-0.34-4.53-0.762-6.655-1.279
			c0.595-2.096,1.345-4.256,2.19-6.412C281.8,678.363,282.496,679.66,283.258,680.958L283.258,680.958z M278.895,661.82
			c2.125-0.5,4.363-0.941,6.685-1.281c-0.791,1.25-1.589,2.531-2.333,3.846c-0.744,1.316-1.446,2.596-2.113,3.895
			C280.28,666.164,279.532,664.007,278.895,661.82L278.895,661.82z M283.032,672.695c1.006-2.172,2.143-4.352,3.363-6.477
			c1.22-2.125,2.56-4.268,3.91-6.197c2.417-0.213,4.87-0.326,7.334-0.326c2.465,0,4.899,0.113,7.304,0.309
			c1.346,1.93,2.661,3.994,3.93,6.168c1.268,2.172,2.381,4.285,3.375,6.459c-1.024,2.178-2.144,4.352-3.363,6.477
			c-1.221,2.125-2.56,4.268-3.911,6.201c-2.417,0.209-4.869,0.322-7.334,0.322c-2.464,0-4.899-0.113-7.304-0.309
			c-1.346-1.93-2.661-3.988-3.929-6.168C285.139,676.976,284.056,674.869,283.032,672.695L283.032,672.695z M312.022,680.91
			c0.744-1.297,1.44-2.613,2.107-3.91c0.854,2.115,1.601,4.273,2.238,6.465c-2.125,0.518-4.363,0.957-6.685,1.297
			C310.48,683.505,311.272,682.226,312.022,680.91L312.022,680.91z M312.022,664.337c-0.744-1.297-1.542-2.566-2.339-3.799
			c2.31,0.338,4.527,0.766,6.655,1.281c-0.596,2.096-1.346,4.256-2.191,6.41c-0.685-1.297-1.381-2.596-2.143-3.893H312.022z
			 M302.105,656.169c-1.465-0.059-2.977-0.113-4.465-0.113s-3.036,0.037-4.512,0.113c1.393-1.809,2.883-3.543,4.464-5.189
			C299.183,652.632,300.689,654.365,302.105,656.169z M279.526,641.289c0.574-0.307,1.22-0.453,1.869-0.424l0,0
			c3.357,0,8.334,2.68,13.632,7.566c-2.416,2.543-4.655,5.248-6.702,8.096c-3.478,0.359-6.927,0.957-10.322,1.787
			c-0.375-1.619-0.649-3.197-0.846-4.703c-0.762-6.203,0.179-11.025,2.369-12.305V641.289z M275.436,682.5
			c-1.606-0.506-3.131-1.061-4.542-1.654c-5.75-2.453-9.465-5.668-9.465-8.215c0-2.549,3.715-5.781,9.465-8.215
			c1.394-0.596,2.917-1.139,4.495-1.639c0.991,3.373,2.211,6.674,3.648,9.883c-1.421,3.201-2.624,6.494-3.602,9.857V682.5z
			 M281.46,704.47c-0.638,0.012-1.268-0.139-1.833-0.434c-2.209-1.268-3.167-6.09-2.423-12.287c0.179-1.529,0.47-3.131,0.827-4.762
			c3.394,0.824,6.838,1.422,10.311,1.785c2.065,2.855,4.32,5.568,6.75,8.121c-5.292,4.904-10.257,7.596-13.632,7.596V704.47z
			 M297.67,694.298c-1.591-1.656-3.097-3.391-4.513-5.197c1.465,0.064,2.977,0.113,4.465,0.113s3.036-0.029,4.512-0.113
			c-1.393,1.818-2.883,3.559-4.464,5.215V694.298z M315.754,703.97c-0.573,0.307-1.22,0.453-1.869,0.424
			c-3.357,0-8.334-2.68-13.632-7.566c2.416-2.543,4.655-5.248,6.703-8.096c3.478-0.359,6.926-0.957,10.322-1.785
			c0.365,1.557,0.647,3.133,0.845,4.721c0.762,6.221-0.179,11.035-2.369,12.322V703.97z M324.374,680.845
			c-1.399,0.594-2.923,1.131-4.501,1.637c-0.992-3.375-2.212-6.678-3.648-9.889c1.412-3.193,2.605-6.479,3.571-9.834
			c1.607,0.506,3.131,1.055,4.56,1.656c5.751,2.451,9.465,5.666,9.465,8.215c0,2.547-3.702,5.797-9.446,8.232V680.845z"/>
		<circle fill="#61DAFB" cx="297.622" cy="672.647" r="7.417"/>
		<path opacity="0.15" enable-background="new    " d="M395.295,544.359c16.853-13.691,32.39-32.574,42.075-51.254
			c-0.036-0.059-2.078,2.012-2.113,1.953c-0.036-0.061-12.543,11.18-48.527,11.012c-45.42-0.184-36.038-12.906-90.786-12.906
			c-48.468,0-40.771,7.078-86.405,9.615c-36.961,2.053-49.777-7.738-49.777-7.738l-0.119,0.195
			c6.467,12.453,14.588,23.973,24.145,34.246c2.572,2.77,5.274,5.465,8.024,8.025c2.91,2.736,5.96,5.318,9.138,7.738
			c3.084,2.352,6.352,4.596,9.721,6.674c12.924,7.143,27.669,12.584,43.831,16.148c3.863,0.852,7.738,1.572,11.495,2.145
			c39.175,3.482,83.981,3.988,119.496-18.525C388.843,549.394,392.141,546.923,395.295,544.359z"/>
		<circle fill="#592D3D" cx="185.436" cy="518.654" r="2.488"/>
		<circle fill="#592D3D" cx="201.508" cy="521.142" r="1.762"/>
		<circle fill="#592D3D" cx="238.738" cy="547.728" r="1.762"/>
		<circle fill="#592D3D" cx="301.705" cy="549.71" r="1.762"/>
		<circle fill="#592D3D" cx="308.135" cy="545.656" r="1.762"/>
		<circle fill="#592D3D" cx="344.268" cy="543.894" r="1.762"/>
		<circle fill="#592D3D" cx="346.031" cy="532.947" r="1.762"/>
		<circle fill="#592D3D" cx="233.165" cy="537.454" r="3.196"/>
		<circle fill="#592D3D" cx="357.43" cy="547.412" r="1.244"/>
		<circle fill="#592D3D" cx="382.741" cy="540.644" r="2.488"/>
		<circle fill="#592D3D" cx="275.353" cy="557.289" r="2.488"/>
		<circle fill="#592D3D" cx="382.741" cy="521.083" r="1.762"/>
		<circle fill="#592D3D" cx="389.343" cy="526.941" r="1.762"/>
		<path fill="#F3AB98" d="M161.559,469.652c-0.595-16.883,10.715-31.17,25.764-37.838c1.58-0.646,3.203-1.184,4.857-1.605
			c8.34-2.072,17.116-1.516,25.127,1.594c1.831,0.703,3.611,1.529,5.328,2.477c17.578,9.453,25.472,31.699,18.668,49.684
			c-0.689,1.813-1.521,3.568-2.488,5.25c-2.374,4.945-5.96,9.211-10.424,12.398c-1.489,1.096-3.05,2.092-4.673,2.977
			c-16.299,7.738-38.324,5.357-51.462-6.785c-1.314-1.396-2.529-2.883-3.637-4.447c-1.264-1.787-2.373-3.68-3.316-5.654
			c-1.996-4.043-3.148-8.447-3.387-12.947C161.7,473.06,161.581,471.357,161.559,469.652z"/>
		<path fill="#FFFFFF" d="M160.589,458.728c-0.596-16.883,10.715-31.17,25.764-37.836c1.578-0.647,3.199-1.184,4.852-1.607
			c8.341-2.073,17.12-1.516,25.133,1.595c1.824,0.702,3.599,1.53,5.31,2.476c17.578,9.459,25.472,31.699,18.668,49.684
			c-0.685,1.814-1.517,3.57-2.488,5.25c-0.823,1.613-1.76,3.164-2.804,4.643c-1.029,1.467-2.159,2.859-3.381,4.168
			c-1.322,1.307-2.738,2.516-4.239,3.613c-1.487,1.096-3.049,2.092-4.673,2.977c-16.299,7.738-38.324,5.357-51.456-6.787
			c-1.317-1.393-2.532-2.879-3.637-4.447c-1.266-1.787-2.377-3.68-3.321-5.654c-2.01-4.055-3.167-8.477-3.399-12.994
			C160.705,462.121,160.596,460.425,160.589,458.728z"/>
		<circle fill="#592D3D" cx="201.508" cy="459.09" r="7.286"/>
		<path fill="#FDD2B2" stroke="#592D3D" stroke-width="2" stroke-miterlimit="10" d="M201.919,418.04
			c-10.82-0.014-21.2,4.286-28.842,11.948c-1.479,1.482-2.844,3.074-4.083,4.762c-2.563,3.334-4.627,7.021-6.132,10.947h77.583
			c-2.012-7.066-6.203-13.316-11.977-17.857c-1.191-1.021-2.439-1.973-3.739-2.852C217.993,420.44,210.047,418.021,201.919,418.04z"
			/>
		<path fill="#FDD2B2" stroke="#592D3D" stroke-width="2" stroke-miterlimit="10" d="M163.16,472.408
			c3.274,8.184,9.107,15.436,16.62,19.834c1.935,1.096,3.955,2.031,6.042,2.799c14.662,5.41,32.74,3.018,44.343-6.912
			c1.559-1.398,3.009-2.912,4.34-4.529c1.002-1.209,1.917-2.484,2.738-3.822c1.19-2.367,2.174-4.834,2.94-7.369H163.16z"/>
		<path fill="none" stroke="#592D3D" stroke-width="2" stroke-miterlimit="10" d="M160.589,458.728
			c-0.596-16.883,10.715-31.17,25.764-37.836c1.578-0.647,3.199-1.184,4.852-1.607c8.341-2.073,17.12-1.516,25.133,1.595
			c1.824,0.702,3.599,1.53,5.31,2.476c17.578,9.459,25.472,31.699,18.668,49.684c-0.685,1.814-1.517,3.57-2.488,5.25
			c-0.823,1.613-1.76,3.164-2.804,4.643c-1.029,1.467-2.159,2.859-3.381,4.168c-1.322,1.307-2.738,2.516-4.239,3.613
			c-1.487,1.096-3.049,2.092-4.673,2.977c-16.299,7.738-38.324,5.357-51.456-6.787c-1.317-1.393-2.532-2.879-3.637-4.447
			c-1.266-1.787-2.377-3.68-3.321-5.654c-2.01-4.055-3.167-8.477-3.399-12.994C160.705,462.121,160.596,460.425,160.589,458.728z"/>
		<path fill="#F3AB98" d="M347.578,464.853c0.256-9.006,3.97-17.912,8.988-24.604c1.281-1.797,2.698-3.494,4.238-5.078
			c14.15-14.733,36.918-16.98,53.677-5.297c1.353,0.943,2.65,1.963,3.887,3.053c16.073,12.77,17.931,37.586,9.12,55.498
			c-0.856,1.424-1.807,2.789-2.846,4.084c-1.377,1.727-2.886,3.346-4.512,4.84c-12.066,10.613-30.842,13.174-46.081,7.393
			c-2.171-0.818-4.271-1.813-6.28-2.975c-10.655-6.418-18.078-18.508-19.9-31.092C347.621,468.746,347.524,466.798,347.578,464.853z
			"/>
		<path fill="#FFFFFF" d="M350.846,458.007c0.25-8.424,3.822-16.758,8.644-23.014c1.24-1.688,2.605-3.279,4.084-4.762
			c13.808-13.805,35.46-15.893,51.652-4.982c1.299,0.879,2.547,1.83,3.738,2.852c15.478,11.947,17.263,35.162,8.774,51.92
			c-0.822,1.336-1.737,2.613-2.738,3.822c-1.329,1.615-2.78,3.129-4.34,4.523c-11.613,9.965-29.681,12.346-44.343,6.93
			c-2.091-0.77-4.115-1.707-6.054-2.805c-10.251-6-17.394-17.311-19.15-29.08C350.879,461.621,350.789,459.814,350.846,458.007z"/>
		<circle fill="#592D3D" cx="392.414" cy="459.09" r="7.286"/>
		<path fill="#FDD2B2" stroke="#592D3D" stroke-width="2" stroke-miterlimit="10" d="M392.414,418.296
			c-10.82-0.013-21.2,4.286-28.841,11.948c-1.479,1.482-2.844,3.074-4.084,4.762c-2.56,3.334-4.625,7.018-6.132,10.941h77.583
			c-2.013-7.064-6.204-13.314-11.977-17.857c-1.191-1.021-2.439-1.973-3.738-2.852C408.488,420.693,400.541,418.275,392.414,418.296
			z"/>
		<path fill="#FDD2B2" stroke="#592D3D" stroke-width="2" stroke-miterlimit="10" d="M353.656,472.658
			c3.28,8.189,9.108,15.441,16.62,19.834c1.935,1.098,3.956,2.035,6.042,2.805c14.662,5.41,32.741,3.012,44.343-6.918
			c1.56-1.395,3.011-2.908,4.34-4.523c1.001-1.209,1.916-2.486,2.738-3.822c1.193-2.367,2.178-4.836,2.94-7.375H353.656z"/>
		<path fill="none" stroke="#592D3D" stroke-width="2" stroke-miterlimit="10" d="M350.846,458.007
			c0.25-8.424,3.822-16.758,8.644-23.014c1.24-1.688,2.605-3.279,4.084-4.762c13.808-13.805,35.46-15.893,51.652-4.982
			c1.299,0.879,2.547,1.83,3.738,2.852c15.478,11.947,17.263,35.162,8.774,51.92c-0.822,1.336-1.737,2.613-2.738,3.822
			c-1.329,1.615-2.78,3.129-4.34,4.523c-11.613,9.965-29.681,12.346-44.343,6.93c-2.091-0.77-4.115-1.707-6.054-2.805
			c-10.251-6-17.394-17.311-19.15-29.08C350.879,461.621,350.789,459.814,350.846,458.007z"/>
		<path fill="#FFFFFF" stroke="#592D3D" stroke-width="2" stroke-miterlimit="10" d="M276.061,479.384
			c9.257,0,14.954,7.596,21.723,7.596c6.768,0,15.423-7.596,24.566-7.596s14.12,6.619,14.12,15.787
			c0,9.91-9.971,27.383-37.265,27.383c-27.293,0-38.931-16.514-38.931-27.057C260.275,485.765,266.805,479.384,276.061,479.384z"/>
		
			<line fill="none" stroke="#592D3D" stroke-width="2" stroke-miterlimit="10" x1="284.454" y1="481.425" x2="284.454" y2="520.416"/>
		
			<line fill="none" stroke="#592D3D" stroke-width="2" stroke-miterlimit="10" x1="313.706" y1="481.425" x2="313.706" y2="520.416"/>
		<path fill="#592D3D" d="M151.832,435.601l7.738-2.619l18.573-6.275l22.382-7.559l19.341-6.548c3.138-1.06,6.28-2.089,9.405-3.179
			l0.138-0.042c1.486-0.443,2.758-1.418,3.571-2.738c1.66-2.837,0.706-6.483-2.131-8.144c-1.387-0.81-3.042-1.024-4.59-0.595
			l-7.738,2.613l-18.573,6.274l-22.383,7.566l-19.34,6.548c-3.138,1.059-6.28,2.096-9.405,3.178l-0.138,0.049
			c-1.486,0.441-2.758,1.416-3.571,2.738c-1.66,2.836-0.706,6.482,2.131,8.143c1.387,0.811,3.042,1.023,4.59,0.596V435.601z"/>
		<path fill="#592D3D" d="M367.621,409.04l7.577,3.054l18.181,7.328l21.912,8.834l18.936,7.637c3.065,1.232,6.107,2.561,9.209,3.715
			l0.131,0.047c1.34,0.543,3.399,0.096,4.59-0.594c2.838-1.66,3.794-5.307,2.135-8.145c-0.001-0.002-0.003-0.004-0.004-0.006
			l-0.929-1.189c-0.728-0.729-1.632-1.256-2.625-1.531l-7.578-3.076l-18.18-7.334l-21.912-8.834l-18.936-7.644
			c-3.066-1.238-6.107-2.565-9.209-3.714l-0.131-0.054c-1.34-0.542-3.399-0.095-4.59,0.595c-2.837,1.661-3.791,5.306-2.131,8.144
			l0.929,1.19c0.729,0.729,1.632,1.258,2.625,1.536V409.04z"/>
		<g transform="scale(1)">
			<circle fill="#D67070" cx="292.544" cy="219.823" r="28.264"/>
			<path fill="#C46565" d="M292.544,248.087c15.606,0.007,28.264-12.639,28.271-28.245c0.001-1.973-0.205-3.94-0.613-5.87
				c-18.323-2.839-37.324-1.191-55.819,3.572c-0.06,0.75-0.102,1.506-0.102,2.274c-0.003,15.609,12.648,28.267,28.258,28.27
				C292.54,248.087,292.542,248.087,292.544,248.087z"/>
			<circle fill="none" stroke="#592D3D" stroke-width="2" stroke-miterlimit="10" cx="292.544" cy="219.823" r="28.264"/>
			<path fill="#D67070" d="M143.022,378.162c-0.007-11.521,1.3-23.004,3.894-34.229c0.512-2.203,1.069-4.385,1.673-6.548
				c1.726-19.228,11.905-35.086,25.514-49.248c2.833-2.268,3.398-7.364,6.232-10.197c9.632-8.495,18.126-16.995,28.889-23.811
				c44.182-28.324,102.525-43.616,149.54-17.561c9.626,5.096,20.389,7.929,28.317,14.727c15.299,13.025,26.056,28.324,41.354,40.783
				c13.59,11.311,15.858,29.455,20.68,45.283c0.607,2.159,1.165,4.341,1.673,6.548c2.595,11.225,3.9,22.708,3.894,34.229
				L143.022,378.162z"/>
			<path fill="#C46565" d="M146.915,343.934c-2.594,11.225-3.9,22.708-3.894,34.229h49.408
				c-0.929-48.015-13.251-88.113,49.254-136.992C196.847,258.189,155.993,295.567,146.915,343.934z"/>
			<path fill="#C46565" d="M153.69,317.438c-2.748,6.337-4.47,13.07-5.102,19.948c-0.604,2.159-1.161,4.341-1.673,6.548
				c-2.594,11.225-3.9,22.708-3.894,34.229h119.086c25.279-1.956,50.672-1.956,75.952,0h116.621
				c0.007-11.521-1.299-23.004-3.894-34.229c-0.512-2.203-1.069-4.385-1.673-6.548c-2.06-6.769-3.66-13.954-5.869-20.835
				C346.875,280.894,249.422,281.649,153.69,317.438z"/>
			<path fill="none" stroke="#592D3D" stroke-width="2" stroke-miterlimit="10" d="M143.022,378.162
				c-0.007-11.521,1.3-23.004,3.894-34.229c0.512-2.203,1.069-4.385,1.673-6.548c1.726-19.228,11.905-35.086,25.514-49.248
				c2.833-2.268,3.398-7.364,6.232-10.197c9.632-8.495,18.126-16.995,28.889-23.811c44.182-28.324,102.525-43.616,149.54-17.561
				c9.626,5.096,20.389,7.929,28.317,14.727c15.299,13.025,26.056,28.324,41.354,40.783c13.59,11.311,15.858,29.455,20.68,45.283
				c0.607,2.159,1.165,4.341,1.673,6.548c2.595,11.225,3.9,22.708,3.894,34.229L143.022,378.162z"/>
			<path fill="#D67070" d="M134.147,338.457c109.186-46.432,220.932-47.063,330.939,0c10.436,4.465,10.376,83.261,0,79.654
				c-107.43-37.401-221.045-37.8-330.939,0C121.074,422.605,122.348,343.475,134.147,338.457z"/>
			<path fill="#592D3D" d="M447.252,390.413c0.492,1.927,0.762,3.905,0.803,5.894c0.054,1.946-0.065,3.881-0.154,5.822l-0.215,2.899
				c-0.095,0.964-0.19,1.929-0.31,2.887c-0.237,1.922-0.529,3.833-0.946,5.72l-4.685-0.839c0.262-1.887,0.596-3.756,0.977-5.625
				l0.595-2.804l0.596-2.798c0.44-1.863,0.815-3.732,1.321-5.596C445.734,394.062,446.409,392.2,447.252,390.413z"/>
			<path fill="#592D3D" d="M446.406,330.147c0.928,3.728,1.649,7.503,2.161,11.31c0.256,1.899,0.464,3.804,0.648,5.709
				s0.292,3.822,0.393,5.732c0.155,3.822,0.221,7.644,0.036,11.459c-0.165,3.826-0.653,7.631-1.459,11.375
				c-0.595-3.804-0.993-7.56-1.381-11.31c-0.387-3.75-0.72-7.471-1.22-11.18c-0.232-1.857-0.494-3.703-0.774-5.548
				c-0.279-1.845-0.595-3.685-0.904-5.518c-0.638-3.673-1.369-7.316-2.138-10.959L446.406,330.147z"/>
			<path fill="none" stroke="#592D3D" stroke-width="2" stroke-miterlimit="10" d="M398.112,317.961
				c4.5,25.52,3.994,53.272,0,82.583"/>
			<path fill="none" stroke="#592D3D" stroke-width="2" stroke-miterlimit="10" d="M356.09,309.396
				c3.066,25.538,2.721,53.307,0,82.643"/>
			<path fill="#592D3D" d="M317.79,338.481c0.717,4.071,1.188,8.182,1.411,12.31c0.237,4.108,0.309,8.215,0.387,12.329v6.167
				c0,2.054,0,4.107-0.071,6.161c-0.09,4.107-0.238,8.215-0.519,12.316l-4.762-0.238c0.131-4.089,0.339-8.173,0.56-12.257
				l0.72-12.245c0.274-4.084,0.488-8.173,0.804-12.263C316.635,346.672,317.1,342.583,317.79,338.481z"/>
			<path fill="#592D3D" d="M319.029,304.794c0.124,1.256,0.18,2.518,0.166,3.78c0,0.631-0.029,1.262-0.047,1.893l-0.078,1.899
				c-0.101,1.262-0.19,2.53-0.404,3.798c-0.218,1.327-0.636,2.613-1.238,3.815c-0.713-1.147-1.255-2.393-1.607-3.697
				c-0.339-1.238-0.554-2.476-0.779-3.72l-0.292-1.857c-0.077-0.625-0.167-1.244-0.232-1.863c-0.141-1.243-0.21-2.493-0.208-3.744
				L319.029,304.794z"/>
			<path fill="none" stroke="#592D3D" stroke-width="2" stroke-miterlimit="10" d="M278.448,304.657
				c0.208,25.597,0.185,53.378,0,82.744"/>
			<path fill="none" stroke="#592D3D" stroke-width="2" stroke-miterlimit="10" d="M240.124,308.544
				c-1.227,25.597-1.09,53.415,0,82.809"/>
			<path fill="#592D3D" d="M198.448,359.423c0.713,3.299,1.252,6.633,1.613,9.989c0.375,3.328,0.648,6.649,0.982,9.971l0.898,9.959
				c0.28,3.315,0.554,6.637,0.744,9.965l-4.762,0.381c-0.346-3.339-0.554-6.691-0.703-10.042c-0.077-1.679-0.119-3.357-0.166-5.036
				l-0.06-5.036c0-3.357,0.029-6.721,0.208-10.078C197.375,366.112,197.79,362.746,198.448,359.423z"/>
			<path fill="#592D3D" d="M202.681,316.878c-0.148,2.173-0.381,4.334-0.625,6.495l-0.393,3.245l-0.429,3.244
				c-0.321,2.167-0.565,4.333-0.952,6.506c-0.373,2.209-0.931,4.384-1.667,6.5c-0.621-2.165-1.021-4.386-1.19-6.631
				c-0.179-2.214-0.19-4.417-0.227-6.631v-3.31c0.036-1.107,0.065-2.208,0.119-3.31c0.119-2.208,0.292-4.411,0.596-6.602
				L202.681,316.878z"/>
			<path fill="none" stroke="#592D3D" stroke-width="2" stroke-miterlimit="10" d="M157.666,328.944
				c-4.084,25.597-3.626,53.486,0,82.923"/>
			<path fill="#592D3D" d="M448.287,384.978c1.233,0,2.232-0.999,2.232-2.232s-0.999-2.232-2.232-2.232
				c-1.232,0-2.232,1-2.232,2.232C446.072,383.972,447.062,384.962,448.287,384.978z"/>
			<path fill="none" stroke="#C46565" stroke-width="2" stroke-miterlimit="10" d="M451.389,329.498
				c5.953,25.502,5.269,53.236,0,82.53"/>
			<path fill="none" stroke="#C46565" stroke-width="2" stroke-miterlimit="10" d="M405.386,316.771
				c4.5,25.52,3.994,53.271,0,82.589"/>
			<path fill="none" stroke="#C46565" stroke-width="2" stroke-miterlimit="10" d="M363.347,308.11
				c3.065,25.538,2.721,53.307,0,82.643"/>
			<path fill="none" stroke="#C46565" stroke-width="2" stroke-miterlimit="10" d="M323.868,303.568
				c1.631,25.549,1.452,53.343,0,82.696"/>
			<path fill="none" stroke="#C46565" stroke-width="2" stroke-miterlimit="10" d="M285.615,303.175
				c0.202,25.567,0.185,53.379,0,82.744"/>
			<path fill="none" stroke="#C46565" stroke-width="2" stroke-miterlimit="10" d="M247.243,306.967
				c-1.226,25.597-1.089,53.415,0,82.81"/>
			<path fill="none" stroke="#C46565" stroke-width="2" stroke-miterlimit="10" d="M207.402,314.985
				c-2.655,25.597-2.381,53.45,0,82.869"/>
			<path fill="none" stroke="#C46565" stroke-width="2" stroke-miterlimit="10" d="M164.738,327.271
				c-4.083,25.597-3.625,53.486,0,82.923"/>
			<path fill="none" stroke="#592D3D" stroke-width="2" stroke-miterlimit="10" d="M134.147,338.457
				c109.186-46.432,220.932-47.063,330.939,0c10.436,4.465,10.376,83.261,0,79.654c-107.43-37.401-221.045-37.8-330.939,0
				C121.074,422.605,122.348,343.475,134.147,338.457z"/>
			<path fill="#592D3D" d="M254.042,295.174c7.587-1.589,15.262-2.726,22.983-3.405c1.935-0.167,3.863-0.333,5.798-0.464
				l5.804-0.333c1.941-0.083,3.876-0.119,5.816-0.179l5.815-0.077c7.738,0,15.507,0.375,23.216,1.095
				c7.722,0.688,15.395,1.841,22.978,3.453c-7.738-0.173-15.477-0.47-23.144-0.673c-7.668-0.202-15.383-0.292-23.067-0.31h-5.763
				c-1.923,0-3.845,0.071-5.768,0.065l-5.763,0.083c-1.923,0.065-3.846,0.095-5.774,0.119
				C269.495,294.746,261.792,295.02,254.042,295.174z"/>
			<path fill="#FFFFFF" d="M206.746,265.476c4.21-3.366,8.663-6.416,13.323-9.125c4.631-2.75,9.411-5.262,14.286-7.536
				c1.19-0.595,2.459-1.107,3.691-1.655c1.231-0.548,2.458-1.107,3.714-1.59c2.513-0.982,5.001-2.012,7.561-2.857
				c5.072-1.81,10.254-3.301,15.513-4.464c-1.232,0.542-2.477,1.06-3.721,1.565c-1.244,0.506-2.494,0.977-3.721,1.524
				c-2.47,1.036-4.946,2.036-7.398,3.107l-1.84,0.792c-0.596,0.256-1.238,0.506-1.846,0.786l-3.661,1.625
				c-1.226,0.524-2.435,1.089-3.654,1.637c-1.221,0.547-2.435,1.095-3.632,1.685l-3.631,1.685c-1.19,0.595-2.381,1.19-3.602,1.786
				c-2.381,1.155-4.762,2.381-7.173,3.571C216.199,260.404,211.461,262.886,206.746,265.476z"/>
		</g>
	</g>
	<path fill-rule="evenodd" clip-rule="evenodd" fill="#472734" stroke="#592D3D" stroke-width="2" stroke-miterlimit="10" d="
		M302.167,626.415c-1.955,2.801-3.674,5.504-5.629,8.018c-5.313,6.828-12.149,11.607-20.347,14.273
		c-1.302,0.422-3.045-0.521-4.584-0.832c0.561-1.406,0.71-3.352,1.743-4.137c9.891-7.533,10.76-17.943,9.997-30.52
		c-1.702,2.396-2.634,3.668-3.523,4.971c-8.549,12.529-19.934,21.182-34.708,24.988c-1.581,0.408-3.545-0.674-5.33-1.064
		c1.069-1.395,1.847-3.416,3.259-4.07c6.221-2.887,9.734-7.773,10.363-14.313c0.703-7.32,0.588-14.717,0.828-22.082
		c0.245-7.541-0.305-15.205,0.89-22.59c2.627-16.225,11.9-25.713,28.235-27.363c11.483-1.162,23.368-0.867,34.808,0.711
		c15.061,2.078,24.199,12.73,25.795,27.93c1.002,9.549,1.215,19.178,1.83,28.77c0.662,10.357,3.225,19.949,10.945,27.549
		c0.791,0.781,0.803,2.35,1.178,3.551c-1.502,0.467-3.107,1.541-4.492,1.307c-10.102-1.719-17.412-7.635-22.994-15.957
		c-0.949-1.414-1.867-2.852-2.82-4.264c-0.066-0.096-0.309-0.072-0.318-0.074c-2.002,7.17-3.031,14.797-6.236,21.363
		c-4.314,8.834-10.15,16.949-15.711,25.117c-1.035,1.52-3.846,1.83-5.838,2.701c0.119-2.016-0.283-4.244,0.441-6.01
		C304.413,653.516,305.597,636.604,302.167,626.415z"/>
</g>
</svg>
